<svg xmlns="http://www.w3.org/2000/svg" width="2600" height="600" viewBox="0 0 2600 600">
  <g id="Group_1" data-name="Group 1" transform="translate(-960 -3112)">
    <g id="Color-13-Group">
      <rect width="200" height="100" transform="translate(3360 3112)" fill="#cd638b"/>
      <rect width="100" height="100" transform="translate(3460 3612)" fill="#725e66"/>
      <rect width="100" height="100" transform="translate(3460 3512)" fill="#e4d5da"/>
      <rect width="100" height="100" transform="translate(3460 3412)" fill="#8b5367"/>
      <rect width="100" height="100" transform="translate(3460 3312)" fill="#d9a1b4"/>
      <rect width="100" height="100" transform="translate(3460 3212)" fill="#cf6b8f"/>
      <rect width="100" height="100" transform="translate(3360 3612)" fill="#bcadb1"/>
      <rect width="100" height="100" transform="translate(3360 3512)" fill="#60354b"/>
      <rect width="100" height="100" transform="translate(3360 3412)" fill="#b3798b"/>
      <rect width="100" height="100" transform="translate(3360 3312)" fill="#862658"/>
      <rect width="100" height="100" transform="translate(3360 3212)" fill="#ad356f"/>
    </g>
    <g id="Color-12-Group">
      <rect width="200" height="100" transform="translate(3160 3112)" fill="#a164a7"/>
      <rect width="100" height="100" transform="translate(3260 3612)" fill="#605664"/>
      <rect width="100" height="100" transform="translate(3260 3512)" fill="#cfc9d1"/>
      <rect width="100" height="100" transform="translate(3260 3412)" fill="#6c4d73"/>
      <rect width="100" height="100" transform="translate(3260 3312)" fill="#b89bb9"/>
      <rect width="100" height="100" transform="translate(3260 3212)" fill="#a167a9"/>
      <rect width="100" height="100" transform="translate(3160 3612)" fill="#aba1ac"/>
      <rect width="100" height="100" transform="translate(3160 3512)" fill="#432e4b"/>
      <rect width="100" height="100" transform="translate(3160 3412)" fill="#907395"/>
      <rect width="100" height="100" transform="translate(3160 3312)" fill="#602b6c"/>
      <rect width="100" height="100" transform="translate(3160 3212)" fill="#813d8b"/>
    </g>
    <g id="Color-11-Group">
      <rect width="200" height="100" transform="translate(2960 3112)" fill="#7474bb"/>
      <rect width="100" height="100" transform="translate(3060 3612)" fill="#565869"/>
      <rect width="100" height="100" transform="translate(3060 3512)" fill="#c9cad5"/>
      <rect width="100" height="100" transform="translate(3060 3412)" fill="#55567e"/>
      <rect width="100" height="100" transform="translate(3060 3312)" fill="#a2a0c7"/>
      <rect width="100" height="100" transform="translate(3060 3212)" fill="#7577bd"/>
      <rect width="100" height="100" transform="translate(2960 3612)" fill="#a2a3b0"/>
      <rect width="100" height="100" transform="translate(2960 3512)" fill="#333555"/>
      <rect width="100" height="100" transform="translate(2960 3412)" fill="#787aa1"/>
      <rect width="100" height="100" transform="translate(2960 3312)" fill="#3e387e"/>
      <rect width="100" height="100" transform="translate(2960 3212)" fill="#534da1"/>
    </g>
    <g id="Color-10-Group">
      <rect width="200" height="100" transform="translate(2760 3112)" fill="#2981c0"/>
      <rect width="100" height="100" transform="translate(2860 3612)" fill="#4c5967"/>
      <rect width="100" height="100" transform="translate(2860 3512)" fill="#c1cdd5"/>
      <rect width="100" height="100" transform="translate(2860 3412)" fill="#365b7f"/>
      <rect width="100" height="100" transform="translate(2860 3312)" fill="#83a8c9"/>
      <rect width="100" height="100" transform="translate(2860 3212)" fill="#2b83c1"/>
      <rect width="100" height="100" transform="translate(2760 3612)" fill="#9ba6b0"/>
      <rect width="100" height="100" transform="translate(2760 3512)" fill="#193b56"/>
      <rect width="100" height="100" transform="translate(2760 3412)" fill="#5d80a1"/>
      <rect width="100" height="100" transform="translate(2760 3312)" fill="#054782"/>
      <rect width="100" height="100" transform="translate(2760 3212)" fill="#055ea6"/>
    </g>
    <g id="Color-9-Group">
      <rect width="200" height="100" transform="translate(2560 3112)" fill="#0094b5"/>
      <rect width="100" height="100" transform="translate(2660 3612)" fill="#4f676f"/>
      <rect width="100" height="100" transform="translate(2660 3512)" fill="#c6dde2"/>
      <rect width="100" height="100" transform="translate(2660 3412)" fill="#246d7f"/>
      <rect width="100" height="100" transform="translate(2660 3312)" fill="#79bbca"/>
      <rect width="100" height="100" transform="translate(2660 3212)" fill="#0599ba"/>
      <rect width="100" height="100" transform="translate(2560 3612)" fill="#9eb5ba"/>
      <rect width="100" height="100" transform="translate(2560 3512)" fill="#05495b"/>
      <rect width="100" height="100" transform="translate(2560 3412)" fill="#5193a5"/>
      <rect width="100" height="100" transform="translate(2560 3312)" fill="#055878"/>
      <rect width="100" height="100" transform="translate(2560 3212)" fill="#05729c"/>
    </g>
    <g id="Color-8-Group">
      <rect width="200" height="100" transform="translate(2360 3112)" fill="#01aa9f"/>
      <rect width="100" height="100" transform="translate(2460 3612)" fill="#4e6b66"/>
      <rect width="100" height="100" transform="translate(2460 3512)" fill="#bee0da"/>
      <rect width="100" height="100" transform="translate(2460 3412)" fill="#2b7e78"/>
      <rect width="100" height="100" transform="translate(2460 3312)" fill="#7ecdc2"/>
      <rect width="100" height="100" transform="translate(2460 3212)" fill="#05aba0"/>
      <rect width="100" height="100" transform="translate(2360 3612)" fill="#98b7b2"/>
      <rect width="100" height="100" transform="translate(2360 3512)" fill="#054b4b"/>
      <rect width="100" height="100" transform="translate(2360 3412)" fill="#55a49c"/>
      <rect width="100" height="100" transform="translate(2360 3312)" fill="#056966"/>
      <rect width="100" height="100" transform="translate(2360 3212)" fill="#058781"/>
    </g>
    <g id="Color-7-Group">
      <rect width="200" height="100" transform="translate(2160 3112)" fill="#40b678"/>
      <rect width="100" height="100" transform="translate(2260 3612)" fill="#53695d"/>
      <rect width="100" height="100" transform="translate(2260 3512)" fill="#c3e0cc"/>
      <rect width="100" height="100" transform="translate(2260 3412)" fill="#4f8969"/>
      <rect width="100" height="100" transform="translate(2260 3312)" fill="#9cdaad"/>
      <rect width="100" height="100" transform="translate(2260 3212)" fill="#41b97b"/>
      <rect width="100" height="100" transform="translate(2160 3612)" fill="#9db7a6"/>
      <rect width="100" height="100" transform="translate(2160 3512)" fill="#245640"/>
      <rect width="100" height="100" transform="translate(2160 3412)" fill="#76b28b"/>
      <rect width="100" height="100" transform="translate(2160 3312)" fill="#057447"/>
      <rect width="100" height="100" transform="translate(2160 3212)" fill="#05a25d"/>
    </g>
    <g id="Color-6-Group">
      <rect width="200" height="100" transform="translate(1960 3112)" fill="#b5c728"/>
      <rect width="100" height="100" transform="translate(2060 3612)" fill="#6e745d"/>
      <rect width="100" height="100" transform="translate(2060 3512)" fill="#e6e9c7"/>
      <rect width="100" height="100" transform="translate(2060 3412)" fill="#85914b"/>
      <rect width="100" height="100" transform="translate(2060 3312)" fill="#d8df93"/>
      <rect width="100" height="100" transform="translate(2060 3212)" fill="#b6c833"/>
      <rect width="100" height="100" transform="translate(1960 3612)" fill="#bcc2a3"/>
      <rect width="100" height="100" transform="translate(1960 3512)" fill="#535e2b"/>
      <rect width="100" height="100" transform="translate(1960 3412)" fill="#acb66c"/>
      <rect width="100" height="100" transform="translate(1960 3312)" fill="#758616"/>
      <rect width="100" height="100" transform="translate(1960 3212)" fill="#a7bb16"/>
    </g>
    <g id="Color-5-Group">
      <rect width="200" height="100" transform="translate(1760 3112)" fill="#f7d230"/>
      <rect width="100" height="100" transform="translate(1860 3612)" fill="#787259"/>
      <rect width="100" height="100" transform="translate(1860 3512)" fill="#eee7c7"/>
      <rect width="100" height="100" transform="translate(1860 3412)" fill="#ab954b"/>
      <rect width="100" height="100" transform="translate(1860 3312)" fill="#f9e690"/>
      <rect width="100" height="100" transform="translate(1860 3212)" fill="#f9d838"/>
      <rect width="100" height="100" transform="translate(1760 3612)" fill="#c6bfa2"/>
      <rect width="100" height="100" transform="translate(1760 3512)" fill="#756326"/>
      <rect width="100" height="100" transform="translate(1760 3412)" fill="#d4be6f"/>
      <rect width="100" height="100" transform="translate(1760 3312)" fill="#b39416"/>
      <rect width="100" height="100" transform="translate(1760 3212)" fill="#edca16"/>
    </g>
    <g id="Color-4-Group">
      <rect width="200" height="100" transform="translate(1560 3112)" fill="#fdab34"/>
      <rect width="100" height="100" transform="translate(1660 3612)" fill="#806f5e"/>
      <rect width="100" height="100" transform="translate(1660 3512)" fill="#f5e4ce"/>
      <rect width="100" height="100" transform="translate(1660 3412)" fill="#b3814b"/>
      <rect width="100" height="100" transform="translate(1660 3312)" fill="#fece92"/>
      <rect width="100" height="100" transform="translate(1660 3212)" fill="#feae3b"/>
      <rect width="100" height="100" transform="translate(1560 3612)" fill="#cdbca9"/>
      <rect width="100" height="100" transform="translate(1560 3512)" fill="#795126"/>
      <rect width="100" height="100" transform="translate(1560 3412)" fill="#daa76d"/>
      <rect width="100" height="100" transform="translate(1560 3312)" fill="#b16f16"/>
      <rect width="100" height="100" transform="translate(1560 3212)" fill="#f49e16"/>
    </g>
    <g id="Color-3-Group">
      <rect width="200" height="100" transform="translate(1360 3112)" fill="#f77f54"/>
      <rect width="100" height="100" transform="translate(1460 3612)" fill="#755e59"/>
      <rect width="100" height="100" transform="translate(1460 3512)" fill="#e9d5d0"/>
      <rect width="100" height="100" transform="translate(1460 3412)" fill="#af6c58"/>
      <rect width="100" height="100" transform="translate(1460 3312)" fill="#feba9f"/>
      <rect width="100" height="100" transform="translate(1460 3212)" fill="#f98358"/>
      <rect width="100" height="100" transform="translate(1360 3612)" fill="#c1aca6"/>
      <rect width="100" height="100" transform="translate(1360 3512)" fill="#753b31"/>
      <rect width="100" height="100" transform="translate(1360 3412)" fill="#d9937c"/>
      <rect width="100" height="100" transform="translate(1360 3312)" fill="#ab4226"/>
      <rect width="100" height="100" transform="translate(1360 3212)" fill="#e95e2b"/>
    </g>
    <g id="Color-2-Group">
      <rect width="100" height="100" transform="translate(1260 3612)" fill="#755e5e"/>
      <rect width="100" height="100" transform="translate(1260 3512)" fill="#e7d5d5"/>
      <rect width="100" height="100" transform="translate(1260 3412)" fill="#a35d5e"/>
      <rect width="100" height="100" transform="translate(1260 3312)" fill="#f5aca6"/>
      <rect width="100" height="100" transform="translate(1260 3212)" fill="#ee6f72"/>
      <rect width="100" height="100" transform="translate(1160 3612)" fill="#c0acab"/>
      <rect width="100" height="100" transform="translate(1160 3512)" fill="#682f39"/>
      <rect width="100" height="100" transform="translate(1160 3412)" fill="#c98483"/>
      <rect width="100" height="100" transform="translate(1160 3312)" fill="#a6263d"/>
      <rect width="100" height="100" transform="translate(1160 3212)" fill="#cf354d"/>
      <rect width="200" height="100" transform="translate(1160 3112)" fill="#ea696d"/>
    </g>
    <g id="Color-1-Group">
      <rect width="100" height="100" transform="translate(960 3412)" fill="#feffff"/>
      <rect width="100" height="100" transform="translate(1060 3312)" fill="#bebfbf"/>
      <rect width="100" height="100" transform="translate(960 3312)" fill="#808282"/>
      <rect width="100" height="100" transform="translate(1060 3212)" fill="#414545"/>
      <rect width="100" height="100" transform="translate(960 3212)" fill="#051616"/>
      <rect width="200" height="100" transform="translate(960 3112)" fill="#000000"/>
    </g>
  </g>
</svg>
